<svg xmlns="http://www.w3.org/2000/svg" viewBox="0 0 800 600" width="800" height="600">
  <!-- Background -->
  <rect width="800" height="600" fill="#f8fafc" rx="20" ry="20"/>
  
  <!-- Doctor 1 -->
  <circle cx="250" cy="200" r="80" fill="#0ea5e9" opacity="0.1"/>
  <circle cx="250" cy="150" r="40" fill="#0284c7" opacity="0.2"/>
  <rect x="220" y="200" width="60" height="100" rx="10" fill="#0284c7" opacity="0.2"/>
  
  <!-- Doctor 2 -->
  <circle cx="400" cy="180" r="80" fill="#06b6d4" opacity="0.1"/>
  <circle cx="400" cy="130" r="40" fill="#0891b2" opacity="0.2"/>
  <rect x="370" y="180" width="60" height="100" rx="10" fill="#0891b2" opacity="0.2"/>
  
  <!-- Doctor 3 -->
  <circle cx="550" cy="200" r="80" fill="#0ea5e9" opacity="0.1"/>
  <circle cx="550" cy="150" r="40" fill="#0284c7" opacity="0.2"/>
  <rect x="520" y="200" width="60" height="100" rx="10" fill="#0284c7" opacity="0.2"/>
  
  <!-- Stethoscope -->
  <path d="M300 350 Q400 250 500 350" stroke="#0ea5e9" stroke-width="8" fill="none"/>
  <circle cx="300" cy="350" r="15" fill="#0ea5e9"/>
  <circle cx="500" cy="350" r="15" fill="#0ea5e9"/>
  
  <!-- Decorative elements -->
  <circle cx="200" cy="450" r="30" fill="#0ea5e9" opacity="0.1"/>
  <circle cx="600" cy="450" r="30" fill="#06b6d4" opacity="0.1"/>
  <circle cx="400" cy="500" r="40" fill="#0891b2" opacity="0.1"/>
</svg>