<svg xmlns="http://www.w3.org/2000/svg" viewBox="0 0 800 600" width="800" height="600">
  <!-- Background -->
  <rect width="800" height="600" fill="#f8fafc" rx="20" ry="20"/>
  
  <!-- Medical Monitor -->
  <rect x="250" y="150" width="300" height="200" rx="10" fill="#0284c7" opacity="0.1"/>
  <rect x="270" y="170" width="260" height="140" rx="5" fill="#f8fafc"/>
  
  <!-- Heart Rate Line -->
  <path d="M290 240 L310 240 L320 200 L340 280 L360 240 L380 240 L390 220 L410 260 L430 240 L450 240 L460 220 L480 260 L500 240" 
        stroke="#0ea5e9" stroke-width="3" fill="none"/>
  
  <!-- Monitor Stand -->
  <rect x="380" y="350" width="40" height="50" fill="#0284c7" opacity="0.2"/>
  <rect x="350" y="400" width="100" height="10" rx="5" fill="#0284c7" opacity="0.2"/>
  
  <!-- Medical Equipment 1 -->
  <rect x="150" y="300" width="80" height="120" rx="10" fill="#06b6d4" opacity="0.1"/>
  <circle cx="190" cy="330" r="15" fill="#06b6d4" opacity="0.2"/>
  <rect x="170" y="360" width="40" height="5" rx="2" fill="#06b6d4" opacity="0.2"/>
  <rect x="170" y="375" width="40" height="5" rx="2" fill="#06b6d4" opacity="0.2"/>
  <rect x="170" y="390" width="40" height="5" rx="2" fill="#06b6d4" opacity="0.2"/>
  
  <!-- Medical Equipment 2 -->
  <rect x="570" y="300" width="80" height="120" rx="10" fill="#0ea5e9" opacity="0.1"/>
  <circle cx="610" cy="330" r="15" fill="#0ea5e9" opacity="0.2"/>
  <rect x="590" y="360" width="40" height="5" rx="2" fill="#0ea5e9" opacity="0.2"/>
  <rect x="590" y="375" width="40" height="5" rx="2" fill="#0ea5e9" opacity="0.2"/>
  <rect x="590" y="390" width="40" height="5" rx="2" fill="#0ea5e9" opacity="0.2"/>
  
  <!-- Decorative Elements -->
  <circle cx="150" cy="150" r="30" fill="#0ea5e9" opacity="0.1"/>
  <circle cx="650" cy="150" r="30" fill="#06b6d4" opacity="0.1"/>
  <path d="M100 450 Q400 350 700 450" stroke="#0ea5e9" stroke-width="2" stroke-dasharray="10,5" fill="none"/>
</svg>